<svg xmlns="http://www.w3.org/2000/svg" width="129.105" height="160.817" viewBox="0 0 129.105 160.817"><defs><style>.a{fill:#fffefa;}.b{fill:#60314e;}.c{fill:#fff;}.d{fill:#916882;}.e{fill:#b88e33;}</style></defs><path class="a" d="M108.551,421c0,.995-57.851,38.251-57.851,38.251l9.785,50.705,97.852.89,12.454-55.153Z" transform="translate(-46.238 -410.908)"/><path class="b" d="M62.042,85.585c-31.01,0-51.139-9.277-51.442-9.42l.757-1.611c.49.249,46.9,21.617,107.567-1.344l.623,1.665a162.134,162.134,0,0,1-57.505,10.71Z" transform="translate(-1.161 -8.03)"/><path class="b" d="M63.43,77.965a154.825,154.825,0,0,1-22.008-1.549C22.092,73.638,10.26,68.056,10.1,68l.8-1.6c.463.214,46.973,21.768,108.119.089l.588,1.674a167.709,167.709,0,0,1-56.179,9.8Z" transform="translate(-1.105 -7.283)"/><path class="b" d="M63.72,70.092c-32.63,0-54.14-10.078-54.46-10.23l.775-1.6c.472.223,47.863,22.374,108.814.2l.614,1.674A162.473,162.473,0,0,1,63.72,70.092Z" transform="translate(-1.013 -6.39)"/><path class="b" d="M63.855,63.164c-32.051,0-52.893-9.9-53.205-10.052l.783-1.6c.463.223,46.626,22.142,107.567,0l.614,1.674a162.455,162.455,0,0,1-55.76,9.98Z" transform="translate(-1.166 -5.65)"/><path class="c" d="M37.98,40a105.547,105.547,0,0,0,0,51.959H97.907A111.859,111.859,0,0,0,97.1,40Z" transform="translate(-3.807 -4.388)"/><ellipse class="d" cx="9.945" cy="10.657" rx="9.945" ry="10.657" transform="translate(54.196 50.436)"/><ellipse class="d" cx="9.945" cy="10.657" rx="9.945" ry="10.657" transform="translate(22.145 63.497)"/><ellipse class="d" cx="9.945" cy="10.657" rx="9.945" ry="10.657" transform="translate(87.102 63.497)"/><ellipse class="d" cx="3.552" cy="3.552" rx="3.552" ry="3.552" transform="translate(60.588 36.298)"/><ellipse class="d" cx="3.552" cy="3.552" rx="3.552" ry="3.552" transform="translate(27.673 52.751)"/><ellipse class="d" cx="3.552" cy="3.552" rx="3.552" ry="3.552" transform="translate(93.521 52.751)"/><path class="b" d="M11.5,81.52s45.993,23,106.2,0l-4.6,24.671-94.026,1.665Z" transform="translate(-1.259 -8.942)"/><ellipse class="e" cx="3.695" cy="3.695" rx="3.695" ry="3.695" transform="translate(38.205 42.477)"/><ellipse class="e" cx="3.695" cy="3.695" rx="3.695" ry="3.695" transform="translate(38.205 55.297)"/><ellipse class="e" cx="3.695" cy="3.695" rx="3.695" ry="3.695" transform="translate(82.667 42.477)"/><ellipse class="e" cx="3.695" cy="3.695" rx="3.695" ry="3.695" transform="translate(82.667 55.297)"/><path class="b" d="M86.717,57.438a2.849,2.849,0,0,0-.89-1.371,7.585,7.585,0,0,0-2.671-1.273,26.38,26.38,0,0,0-4.3-.561,7.612,7.612,0,0,1-2.181-.445,1.976,1.976,0,0,1-1.344-1.718,5.92,5.92,0,0,1,.516-2.92,24.039,24.039,0,0,0,2-6.864,9.793,9.793,0,0,0-.2-3.668A5.342,5.342,0,0,0,74.484,34.9a9.464,9.464,0,0,0-3.383-.739,11.8,11.8,0,0,0-4.389.472,5.493,5.493,0,0,0-3.882,3.891,9.793,9.793,0,0,0-.231,3.739,20.148,20.148,0,0,0,1.309,5.1c.294.775.641,1.54.89,2.324a6.134,6.134,0,0,1,.365,2.2,1.968,1.968,0,0,1-1.193,1.87,3.454,3.454,0,0,1-.979.294c-1.149.16-2.3.267-3.454.4a10.123,10.123,0,0,0-3.561.953,3.428,3.428,0,0,0-1.87,1.781,10.48,10.48,0,0,0-.347,1.14,19.337,19.337,0,0,0-.418,4.585c0,1.843.116,3.686.2,5.52,0,.775.107,1.54.178,2.3.116,1.2.249,2.395.383,3.561s.258,2.2.41,3.3c.169,1.273.347,2.555.552,3.828.24,1.576.507,3.143.757,4.719,0,.2.107.258.3.258,4.736,0,9.117,1.38,13.853,1.38H78.2c2.235,0,4.158-1.389,6.384-1.389.151,0,.231,0,.258-.2.187-1.193.4-2.377.588-3.561s.392-2.6.57-3.9.321-2.395.463-3.561.285-2.466.41-3.695c.1-.962.169-1.923.24-2.885.08-1.184.16-2.377.2-3.561a36.094,36.094,0,0,0-.125-5A10.781,10.781,0,0,0,86.717,57.438ZM68.35,42.027h.686c.4,0,.8-.062,1.211-.053a16.1,16.1,0,0,1,1.852.071.89.89,0,0,1,.418.16c.258.187.125.445,0,.641-.249.534-.534,1.059-.819,1.567s-.686,1.184-1.042,1.781a.775.775,0,0,1-.329.3.356.356,0,0,1-.329,0,3.633,3.633,0,0,1-.481-.623c-.418-.7-.819-1.407-1.211-2.128a3.5,3.5,0,0,1-.463-1.033C67.807,42.2,68.011,42.1,68.35,42.027Zm8.476,27.6c-.071.7-.134,1.407-.267,2.1a1.558,1.558,0,0,1-1.113,1.22,6.553,6.553,0,0,1-2.306.294c-.3,0-.605.053-.89.062H68.688l-1.959-.045a1.058,1.058,0,0,1-.231,0l-1.362-.267a1.781,1.781,0,0,1-1.2-1.514c0-.329-.1-.659-.125-.988s0-.65-.045-.979V63.635a13.3,13.3,0,0,1,.071-1.683v-.579a17.107,17.107,0,0,1,.223-1.781,1.683,1.683,0,0,1,1.024-1.282,4.906,4.906,0,0,1,1.665-.329c.89,0,1.781-.071,2.724-.089H72.89a17.2,17.2,0,0,1,2.244.187,1.781,1.781,0,0,1,1.238.694A2.52,2.52,0,0,1,76.825,60c0,.552.1,1.1.125,1.656s0,.97,0,1.46v5.662A2.5,2.5,0,0,0,76.825,69.626Z" transform="translate(-5.847 -3.743)"/><path class="b" d="M45.122,71.744a1.95,1.95,0,0,0-.614-.89,4.941,4.941,0,0,0-1.781-.846,17.967,17.967,0,0,0-2.849-.383,4.9,4.9,0,0,1-1.46-.294,1.318,1.318,0,0,1-.89-1.148,3.828,3.828,0,0,1,.338-1.941A15.946,15.946,0,0,0,39.2,61.657a6.713,6.713,0,0,0-.134-2.457,3.561,3.561,0,0,0-2.119-2.484,6.366,6.366,0,0,0-2.252-.5,8.173,8.173,0,0,0-2.938.312,3.7,3.7,0,0,0-2.537,2.582,6.57,6.57,0,0,0-.151,2.5,13.693,13.693,0,0,0,.846,3.4c.2.516.427,1.024.614,1.549a4.1,4.1,0,0,1,.24,1.469,1.309,1.309,0,0,1-.792,1.246,2.618,2.618,0,0,1-.65.2l-2.315.267a6.49,6.49,0,0,0-2.35.632,2.306,2.306,0,0,0-1.255,1.2,7.425,7.425,0,0,0-.231.757A13.168,13.168,0,0,0,22.9,75.4c0,1.238.08,2.466.134,3.695a14.789,14.789,0,0,0,.125,1.531c.08.8.16,1.6.249,2.4s.178,1.469.276,2.2.231,1.709.365,2.564c.16,1.051.338,2.1.507,3.152,0,.134.071.169.2.169H43.733c.1,0,.151,0,.169-.134.125-.792.267-1.585.392-2.377s.267-1.736.383-2.609.214-1.6.312-2.4.187-1.647.276-2.466c.062-.641.107-1.282.151-1.923.053-.792.116-1.594.134-2.386a24.6,24.6,0,0,0-.08-3.339A7.7,7.7,0,0,0,45.122,71.744ZM32.844,61.461a4.05,4.05,0,0,1,.463,0h.8a9.731,9.731,0,0,1,1.246.053.49.49,0,0,1,.276.107c.178.125.089.294,0,.427-.169.356-.356.7-.552,1.042s-.454.792-.694,1.184a.588.588,0,0,1-.214.2.276.276,0,0,1-.223,0,2.493,2.493,0,0,1-.329-.427q-.418-.694-.8-1.416a2.083,2.083,0,0,1-.312-.686C32.488,61.568,32.622,61.5,32.844,61.461ZM38.507,79.9a7.509,7.509,0,0,1-.178,1.407,1.042,1.042,0,0,1-.739.81,4.576,4.576,0,0,1-1.549.2H31.731a1.007,1.007,0,0,1-.16,0l-.89-.178a1.175,1.175,0,0,1-.8-1.015c0-.214-.062-.436-.08-.659s0-.436,0-.65v-3.9a8.872,8.872,0,0,1,.053-1.131V74.4c.045-.4.071-.81.151-1.2a1.131,1.131,0,0,1,.686-.89,3.223,3.223,0,0,1,1.006-.258q.89,0,1.781-.053h2.288a13.929,13.929,0,0,1,1.5.125,1.184,1.184,0,0,1,.828.472,1.665,1.665,0,0,1,.3.819c0,.365.062.73.08,1.1s0,.65,0,.979v3.766C38.471,79.579,38.524,79.7,38.507,79.9Z" transform="translate(-2.508 -6.164)"/><path class="b" d="M119.083,71.744a1.95,1.95,0,0,0-.614-.89,4.941,4.941,0,0,0-1.781-.846,17.966,17.966,0,0,0-2.849-.383,4.9,4.9,0,0,1-1.46-.294,1.318,1.318,0,0,1-.89-1.148,3.811,3.811,0,0,1,.338-1.941,15.945,15.945,0,0,0,1.335-4.585,6.713,6.713,0,0,0-.134-2.457,3.633,3.633,0,0,0-2.119-2.493,6.553,6.553,0,0,0-2.252-.49,8.013,8.013,0,0,0-2.938.312,3.686,3.686,0,0,0-2.564,2.609,6.544,6.544,0,0,0-.16,2.493,13.684,13.684,0,0,0,.89,3.41c.2.516.427,1.024.614,1.549a4.1,4.1,0,0,1,.24,1.469,1.3,1.3,0,0,1-.8,1.246,2.76,2.76,0,0,1-.65.2c-.766.1-1.531.178-2.306.258a6.784,6.784,0,0,0-2.359.641,2.315,2.315,0,0,0-1.246,1.2,7.422,7.422,0,0,0-.231.757,13.123,13.123,0,0,0-.276,3.063c0,1.229.08,2.466.134,3.695a14.789,14.789,0,0,0,.125,1.531c.071.8.16,1.6.249,2.395s.178,1.478.276,2.208.231,1.709.365,2.564c.16,1.051.338,2.1.507,3.152,0,.134.071.169.2.169h19.008c.1,0,.151,0,.169-.134.125-.8.267-1.585.392-2.386s.267-1.727.383-2.6.214-1.6.312-2.4.187-1.647.267-2.466c.071-.641.116-1.282.16-1.932.053-.792.116-1.585.134-2.377a26.129,26.129,0,0,0-.08-3.339,7.7,7.7,0,0,0-.392-1.763Zm-12.3-10.283a4.05,4.05,0,0,1,.463,0h.8a11.417,11.417,0,0,1,1.238.045.57.57,0,0,1,.285.116c.169.116.08.294,0,.427-.169.356-.356.7-.552,1.042s-.454.792-.694,1.184a.668.668,0,0,1-.214.2.24.24,0,0,1-.223,0,2.137,2.137,0,0,1-.329-.418q-.418-.694-.8-1.416a2.128,2.128,0,0,1-.312-.694C106.449,61.568,106.583,61.5,106.779,61.461ZM112.5,78.279v1.585a7.325,7.325,0,0,1-.178,1.4,1.033,1.033,0,0,1-.748.819,4.5,4.5,0,0,1-1.54.2h-4.309a1,1,0,0,1-.16,0l-.89-.178a1.166,1.166,0,0,1-.8-1.015c0-.214-.062-.436-.08-.659s0-.436,0-.659v-3.9a8.8,8.8,0,0,1,.053-1.131v-.383a6.084,6.084,0,0,1,.151-1.2,1.131,1.131,0,0,1,.686-.89,3.223,3.223,0,0,1,1.113-.223q.89,0,1.781-.053h2.279a13.9,13.9,0,0,1,1.5.125,1.211,1.211,0,0,1,.828.463,1.781,1.781,0,0,1,.3.819c0,.374.062.739.08,1.113s0,.65,0,.979Z" transform="translate(-10.623 -6.164)"/><path class="b" d="M104.115,142.6H32a152.751,152.751,0,0,0,26.264,26.522l.97.757.356.276q1.923,1.451,3.944,2.885h0l4.549,3.419a46.634,46.634,0,0,0,4.558-3.392h0a150.837,150.837,0,0,0,20.976-18.029h-.089A138.608,138.608,0,0,0,104.115,142.6ZM71.984,159.463v-.053l.16-.071Z" transform="translate(-3.508 -15.641)"/><path class="b" d="M2.226,66.462c.1.543.2,1.086.312,1.638a151.121,151.121,0,0,0,12.055,35.71H114.779a142.164,142.164,0,0,0,8.85-23.362.977.977,0,0,1,.089-.3l.294-1.077a138.7,138.7,0,0,0,5.084-38.711c-.053-2.813-.2-4.38-.2-4.38l-.107.089a141.345,141.345,0,0,1-35.55-14.245q-4.621-2.671-8.351-5.075A123.228,123.228,0,0,1,67.468,3.267,28.589,28.589,0,0,1,64.547,0,74.118,74.118,0,0,1,54.531,9.366c-3.054,2.395-6.722,5.057-10.906,7.781h-.045A144.328,144.328,0,0,1,.231,36.093S-1.006,48.469,2.217,66.364ZM56.535,22.5h0c2.012-1.469,3.659-2.751,4.932-3.766L64.53,16.4l3.08,2.3c1.273,1.006,2.92,2.288,4.923,3.757h0a151.985,151.985,0,0,0,45.085,22.667v.045a125.339,125.339,0,0,1-1.131,13.844,136.014,136.014,0,0,1-6.57,26.184H19.106a135.791,135.791,0,0,1-6.642-26.825,125.71,125.71,0,0,1-1.033-13.2A151.986,151.986,0,0,0,56.526,22.5Z" transform="translate(0.002)"/><ellipse class="e" cx="3.695" cy="3.695" rx="3.695" ry="3.695" transform="translate(38.205 69.765)"/><ellipse class="e" cx="3.695" cy="3.695" rx="3.695" ry="3.695" transform="translate(82.667 68.99)"/><path class="c" d="M102.541,101.454v-.824H98.61v.824h.608v6.9H98.61v.833h3.931v-.833h-.566v-6.9Z" transform="translate(-10.678 -11.038)"/><path class="c" d="M.6,0H7.356V-2.94h-1.8v1.26H3.708V-6.9h.96V-8.58H.6V-6.9h.96v5.34H.6ZM9.4,0h6.756V-2.532h-1.8v.852H12.5v-1.8h2.508V-5.16H12.5V-6.9h1.7v.852h1.8V-8.58H9.4v1.56h.96v5.46H9.4ZM21.2,0h2.208L25.86-7.02h.72V-8.58H22.788v1.56h.84L22.5-3.252a4.781,4.781,0,0,0-.168.936h-.048a4.781,4.781,0,0,0-.168-.936L20.988-7.02h.84V-8.58H18.036v1.56h.72Zm7.284,0h6.756V-2.532h-1.8v.852H31.6v-1.8H34.1V-5.16H31.6V-6.9h1.7v.852h1.8V-8.58H28.488v1.56h.96v5.46h-.96Zm9.12,0h6.756V-2.94h-1.8v1.26H40.716V-6.9h.96V-8.58H37.608V-6.9h.96v5.34h-.96Z" transform="translate(35.41 98.153)"/><path class="b" d="M1.348,0V-10.708H3.618V0ZM16.113,0H13.227L8.569-8.1H8.5q.139,2.146.139,3.062V0H6.613V-10.708H9.477l4.651,8.02h.051q-.11-2.087-.11-2.952v-5.068h2.043Zm9.316-2.974A2.768,2.768,0,0,1,24.385-.688a4.534,4.534,0,0,1-2.9.835A6.82,6.82,0,0,1,18.449-.5V-2.607a12.5,12.5,0,0,0,1.835.681,5.429,5.429,0,0,0,1.373.2A1.953,1.953,0,0,0,22.8-2.014a.977.977,0,0,0,.4-.85.938.938,0,0,0-.176-.56A1.967,1.967,0,0,0,22.51-3.9a13.28,13.28,0,0,0-1.388-.725,6.579,6.579,0,0,1-1.472-.886,3.327,3.327,0,0,1-.784-.989,2.822,2.822,0,0,1-.293-1.318,2.767,2.767,0,0,1,.963-2.234,4,4,0,0,1,2.662-.813,6.287,6.287,0,0,1,1.593.2,10.95,10.95,0,0,1,1.586.557l-.732,1.765a10.716,10.716,0,0,0-1.417-.491,4.562,4.562,0,0,0-1.1-.139,1.46,1.46,0,0,0-.989.3.991.991,0,0,0-.344.784.97.97,0,0,0,.139.524,1.53,1.53,0,0,0,.443.432,13.7,13.7,0,0,0,1.439.751,5.727,5.727,0,0,1,2.058,1.439A2.809,2.809,0,0,1,25.429-2.974ZM31.8,0H29.53V-8.818H26.623v-1.89h8.086v1.89H31.8Zm7.126-5.955h.732a2.8,2.8,0,0,0,1.589-.359,1.281,1.281,0,0,0,.513-1.128,1.172,1.172,0,0,0-.524-1.084,3.178,3.178,0,0,0-1.622-.322h-.688Zm0,1.846V0H36.657V-10.708h3.12a5.34,5.34,0,0,1,3.23.795A2.836,2.836,0,0,1,44.054-7.5a2.841,2.841,0,0,1-.52,1.681,3.441,3.441,0,0,1-1.472,1.154Q44.479-1.055,45.211,0h-2.52L40.136-4.109Zm16.648-6.6v6.929a3.994,3.994,0,0,1-.531,2.08A3.456,3.456,0,0,1,53.509-.33a5.487,5.487,0,0,1-2.373.476A4.544,4.544,0,0,1,47.928-.912a3.754,3.754,0,0,1-1.143-2.9v-6.9h2.263v6.555a2.746,2.746,0,0,0,.5,1.816,2.07,2.07,0,0,0,1.648.579A2.024,2.024,0,0,0,52.81-2.34a2.76,2.76,0,0,0,.5-1.827v-6.541Zm7.47,1.736a2.314,2.314,0,0,0-1.985.963,4.481,4.481,0,0,0-.7,2.684q0,3.582,2.688,3.582a8.5,8.5,0,0,0,2.732-.564V-.4a7.587,7.587,0,0,1-2.944.549,4.491,4.491,0,0,1-3.574-1.417,6,6,0,0,1-1.238-4.069,6.644,6.644,0,0,1,.608-2.926,4.394,4.394,0,0,1,1.747-1.926,5.168,5.168,0,0,1,2.67-.67,7.205,7.205,0,0,1,3.135.754l-.732,1.846a12.124,12.124,0,0,0-1.208-.5A3.605,3.605,0,0,0,63.045-8.972ZM72.486,0H70.215V-8.818H67.308v-1.89h8.086v1.89H72.486ZM86.76-5.369a5.81,5.81,0,0,1-1.318,4.087A4.887,4.887,0,0,1,81.663.146a4.887,4.887,0,0,1-3.779-1.428,5.833,5.833,0,0,1-1.318-4.1,5.754,5.754,0,0,1,1.322-4.083,4.944,4.944,0,0,1,3.79-1.41,4.875,4.875,0,0,1,3.776,1.421A5.825,5.825,0,0,1,86.76-5.369Zm-7.815,0a4.473,4.473,0,0,0,.681,2.7,2.383,2.383,0,0,0,2.036.908q2.717,0,2.717-3.611t-2.7-3.618a2.4,2.4,0,0,0-2.043.912A4.454,4.454,0,0,0,78.945-5.369Zm12.6-.586h.732a2.8,2.8,0,0,0,1.589-.359,1.281,1.281,0,0,0,.513-1.128,1.172,1.172,0,0,0-.524-1.084,3.178,3.178,0,0,0-1.622-.322H91.55Zm0,1.846V0H89.28V-10.708H92.4a5.34,5.34,0,0,1,3.23.795A2.836,2.836,0,0,1,96.677-7.5a2.841,2.841,0,0,1-.52,1.681,3.441,3.441,0,0,1-1.472,1.154Q97.1-1.055,97.834,0h-2.52L92.759-4.109Z" transform="translate(16.419 120.922)"/></svg>